<?xml version="1.0" standalone="no"?>
<svg xmlns="http://www.w3.org/2000/svg" width="167.96853208263946" height="67.63650083263947" viewBox="0 0 167.96853208263946 67.63650083263947"><path fill="#00a8ff" fill-rule="nonzero" d="M13.98 0L13.98 0Q17.64 0 20.21 1.27L20.21 1.27L20.21 7.25L20.18 7.29Q19.08 5.61 15.57 5.06L15.57 5.06Q14.53 4.88 12.95 4.88Q11.37 4.88 9.84 5.48Q8.32 6.07 7.34 7.17L7.34 7.17Q5.45 9.30 5.45 13.24L5.45 13.24Q5.45 17.83 7.85 20.08L7.85 20.08Q9.84 21.95 13.13 21.95L13.13 21.95Q16.84 21.95 19.14 20.37L19.14 20.37Q19.98 19.80 20.57 18.96L20.57 18.96L20.63 19.00L20.63 24.47Q17.64 26.95 12.58 26.95L12.58 26.95Q6.62 26.95 3.24 23.16L3.24 23.16Q0 19.55 0 13.59L0 13.59Q0 7.29 3.55 3.65L3.55 3.65Q7.15 0 13.98 0ZM30.82 26.46L25.72 26.46Q25.84 25.80 25.84 25.02L25.84 25.02L25.84 0.49L29.75 0.49L40.10 16.78L40.10 1.82Q40.10 0.74 39.90 0.49L39.90 0.49L45.18 0.49Q45.08 1.27 45.08 2.21L45.08 2.21L45.08 26.46L41.02 26.46L30.82 10.82L30.82 26.46ZM63.73 0L63.73 0Q67.38 0 69.96 1.27L69.96 1.27L69.96 7.25L69.92 7.29Q68.83 5.61 65.31 5.06L65.31 5.06Q64.28 4.88 62.70 4.88Q61.11 4.88 59.59 5.48Q58.07 6.07 57.09 7.17L57.09 7.17Q55.20 9.30 55.20 13.24L55.20 13.24Q55.20 17.83 57.60 20.08L57.60 20.08Q59.59 21.95 62.87 21.95L62.87 21.95Q66.58 21.95 68.89 20.37L68.89 20.37Q69.73 19.80 70.31 18.96L70.31 18.96L70.37 19.00L70.37 24.47Q67.38 26.95 62.32 26.95L62.32 26.95Q56.37 26.95 52.99 23.16L52.99 23.16Q49.75 19.55 49.75 13.59L49.75 13.59Q49.75 7.29 53.30 3.65L53.30 3.65Q56.89 0 63.73 0Z" transform="translate(0 0) scale(1.213)"></path><path fill="#00a8ff" fill-rule="nonzero" d="M11.89 4.86L11.89 26.58Q10.96 26.46 7.07 26.46L7.07 26.46L6.45 26.46L6.45 4.86L2.58 4.86Q0.86 4.86 0.55 5.04Q0.23 5.21 0.06 5.35L0.06 5.35L0 5.33L0 0.33L0.06 0.27Q0.70 0.49 3.54 0.49L3.54 0.49L15.78 0.49Q17.50 0.49 17.81 0.31Q18.13 0.14 18.30 0L18.30 0L18.36 0.02L18.36 5.02L18.30 5.08Q17.66 4.86 14.82 4.86L14.82 4.86L11.89 4.86ZM27.66 21.78L35.63 21.78Q36.84 21.78 37.30 21.54L37.30 21.54L37.38 21.56L37.19 26.46L22.56 26.46L22.56 0.35Q23.09 0.39 23.73 0.41L23.73 0.41L25.10 0.45Q26.46 0.49 28.07 0.49L28.07 0.49Q32.54 0.49 36.91 0.33L36.91 0.33Q36.70 2.05 36.70 4.92L36.70 4.92Q36.70 5.23 36.74 5.39L36.74 5.39L36.70 5.45Q35.68 5.16 33.81 5.16L33.81 5.16L27.66 5.16L27.66 10.14L32.29 10.14Q34.43 10.14 34.86 10.02L34.86 10.02L34.92 14.84Q33.98 14.75 32.50 14.75L32.50 14.75L27.66 14.75L27.66 21.78ZM54.24 0L54.24 0Q57.89 0 60.47 1.27L60.47 1.27L60.47 7.25L60.43 7.29Q59.34 5.61 55.82 5.06L55.82 5.06Q54.79 4.88 53.20 4.88Q51.62 4.88 50.10 5.48Q48.57 6.07 47.60 7.17L47.60 7.17Q45.70 9.30 45.70 13.24L45.70 13.24Q45.70 17.83 48.11 20.08L48.11 20.08Q50.10 21.95 53.38 21.95L53.38 21.95Q57.09 21.95 59.39 20.37L59.39 20.37Q60.23 19.80 60.82 18.96L60.82 18.96L60.88 19.00L60.88 24.47Q57.89 26.95 52.83 26.95L52.83 26.95Q46.88 26.95 43.50 23.16L43.50 23.16Q40.25 19.55 40.25 13.59L40.25 13.59Q40.25 7.29 43.81 3.65L43.81 3.65Q47.40 0 54.24 0ZM71.07 15.43L71.07 26.58Q69.20 26.46 66.62 26.46L66.62 26.46L66.00 26.46L66.00 0.39Q67.21 0.49 67.71 0.49L67.71 0.49L68.52 0.49Q70.06 0.49 71.07 0.33L71.07 0.33L71.07 10.74L80.25 10.74L80.25 0.39Q81.88 0.49 83.41 0.49Q84.94 0.49 85.33 0.33L85.33 0.33L85.33 26.58Q84.39 26.46 81.62 26.46L81.62 26.46L80.25 26.46L80.25 15.43L71.07 15.43Z" transform="translate(0 40.684) scale(1)"></path><g fill="#00b8ff" color="#00b8ff" transform="translate(100.333 0) scale(1.3419941)"><svg width="50.4" height="50.4" x="0.0" y="0.0" viewBox="0 0 50.4 50.4"><g><path d="M24.249,37.462c0.078,0.375,0.072,0.768-0.039,1.146c-0.094,0.355-0.284,0.686-0.545,0.961   c-0.883,0.893-2.326,0.916-3.228,0.045l-4.923-4.824l-0.863,1.059l4.925,4.824c1.221,1.186,3.875,1.111,5.075-0.107   c0.416-0.424,1.003-1.389,1.127-1.947l11.006,0.01c1.27,0,2.528,1.184,2.528,2.449c0,1.277-0.834,2.84-2.581,2.84H18.626   c-0.817-0.025-1.838-0.443-2.551-1.047L5.757,35.001l-5.748,0.023L0,26.233h0.048v-0.076h11.466c0,0,1.2,0.027,2.026,0.506   c0.761,0.447,1.44,1.096,1.44,1.096l8.631,8.598C23.925,36.657,24.143,37.034,24.249,37.462z"></path><path d="M45.509,37.042l0.031-16.319l2.537,2.318l2.286-2.501L35.7,7.157l-6.519,5.837V9.8h-3.482v6.314l-4.793,4.293l2.259,2.522   l2.534-2.27l0.017,16.385h4.316v-8.451h4.15v8.447H45.509z M37.205,20.441h4.15v4.28h-4.15V20.441z M30.031,24.721v-4.28h4.152   v4.28H30.031z"></path></g></svg></g></svg>