<?xml version="1.0" standalone="no"?>
<!DOCTYPE svg PUBLIC "-//W3C//DTD SVG 20010904//EN"
 "http://www.w3.org/TR/2001/REC-SVG-20010904/DTD/svg10.dtd">
<svg version="1.0" xmlns="http://www.w3.org/2000/svg"
 width="512.000000pt" height="512.000000pt" viewBox="0 0 512.000000 512.000000"
 preserveAspectRatio="xMidYMid meet">

<g transform="translate(0.000000,512.000000) scale(0.100000,-0.100000)"
fill="#000000" stroke="none">
<path d="M25 4265 l-25 -24 0 -1681 0 -1681 25 -24 24 -25 2511 0 2511 0 24
25 25 24 0 1681 0 1681 -25 24 -24 25 -2010 0 c-1105 0 -2017 -3 -2026 -6 -23
-9 -48 -62 -41 -90 4 -13 16 -33 28 -44 22 -20 27 -20 1975 -20 l1953 0 0
-1570 0 -1570 -2390 0 -2390 0 0 1570 0 1570 299 0 c297 0 300 0 326 23 35 29
37 78 5 112 l-23 25 -364 0 -364 0 -24 -25z"/>
<path d="M2465 3464 c-223 -33 -399 -118 -545 -264 -258 -258 -337 -645 -200
-981 111 -272 355 -478 646 -545 106 -25 282 -25 388 0 347 80 612 345 692
692 25 106 25 282 0 388 -79 344 -346 613 -686 690 -74 17 -239 28 -295 20z"/>
</g>
</svg>
